<svg xmlns="http://www.w3.org/2000/svg" viewBox="0 0 24 24" id="artstation"><path d="M21 23h-.005a.5.5 0 0 1-.43-.253l-11.913-21A.5.5 0 0 1 9.087 1h4.073c1.261 0 2.429.682 3.049 1.78l7.328 12.99a3.506 3.506 0 0 1-.04 3.509l-2.067 3.476A.5.5 0 0 1 21 23zM9.945 2 21.01 21.504l1.628-2.736a2.502 2.502 0 0 0 .028-2.506l-7.328-12.99A2.502 2.502 0 0 0 13.16 2H9.945zM13.5 15h-12a.503.503 0 0 1-.436-.253.502.502 0 0 1 .007-.504l6-10c.18-.301.678-.301.857 0l6 10A.5.5 0 0 1 13.5 15zM2.383 14h10.234L7.5 5.472 2.383 14zM17.5 23H5.198a3.517 3.517 0 0 1-3.001-1.699L.071 17.758A.502.502 0 0 1 .5 17h14c.176 0 .339.092.429.243l3 5a.502.502 0 0 1 .007.504.503.503 0 0 1-.436.253zM1.383 18l1.672 2.786A2.51 2.51 0 0 0 5.198 22h11.419l-2.4-4H1.383z" fill="#FFFFFF" fill-rule="evenodd"></path></svg>